<?xml version="1.0" encoding="utf-8"?>
<!-- Generator: Adobe Illustrator 27.5.0, SVG Export Plug-In . SVG Version: 6.00 Build 0)  -->
<svg version="1.1" id="Layer_1" xmlns="http://www.w3.org/2000/svg" xmlns:xlink="http://www.w3.org/1999/xlink" x="0px" y="0px"
	 viewBox="0 0 4000 4000" style="enable-background:new 0 0 4000 4000;" xml:space="preserve">
<g>
	<g>
		<rect style="fill:#FEEBCD;" width="4000" height="4000"/>
	</g>
	<g style="opacity:0.2;">
		<ellipse style="fill:#371A45;" cx="1978.604" cy="3360.169" rx="879.237" ry="201.271"/>
	</g>
	<g>
		<g>
			<g>
				<path style="fill:#FFA233;" d="M1891.391,3322.011c-26.313,22.787-67.184,17-98.47,7.234
					c-31.648-9.766-65.738-7.505-95.487,7.053c-58.684,28.664-152.543,74.056-200.106,94.582
					c-72.248,31.105-126.14,0.905-116.103-53.078c0,0-111.581,3.708-94.22-90.513c2.442-13.292,7.776-24.776,15.643-34.631
					c47.925-59.95,190.25-59.228,354.819-30.744c26.765,4.612,53.983,6.058,80.928,3.888c24.957-2.08,57.509-5.968,92.683-13.473
					c33.999-7.324,58.956,5.335,72.158,25.138C1919.965,3262.513,1917.885,3299.044,1891.391,3322.011z"/>
			</g>
			<g>
				<path style="fill:#E26D1E;" d="M1891.391,3322.011c-26.313,22.787-67.184,17-98.47,7.234
					c-31.648-9.766-65.738-7.505-95.487,7.053c-58.684,28.664-152.543,74.056-200.106,94.582
					c-72.248,31.105-126.14,0.905-116.103-53.078c0,0-111.581,3.708-94.22-90.513c2.442-13.292,7.776-24.776,15.643-34.631
					c0,0-14.467,99.012,115.109,58.684c0,0-52.446,76.226,25.589,74.418c78.035-1.809,214.031-88.433,258.519-96.933
					c44.488-8.5,92.683-9.133,134.729,3.074c42.047,12.117,77.945-24.233,66.642-54.434
					C1919.965,3262.513,1917.885,3299.044,1891.391,3322.011z"/>
			</g>
			<g>
				<path style="fill:#371A45;" d="M1363.487,3374.199c14.451-52.872,64.342-88.287,114.658-103.551
					c40.949-12.763,85.019-14.787,127.53-12.256c12.921,1.379,25.805,2.633,38.618,4.159c4.388,0.522,7.522,4.504,7,8.892
					c-0.477,4.004-3.832,6.963-7.75,7.054c-52.388,0.13-105.942,2.51-155.401,21.188c-28.991,10.762-57.762,28.963-75.566,54.613
					c-6.45,8.844-11.301,18.616-14.226,29.031C1391.119,3405.127,1359.153,3396.746,1363.487,3374.199L1363.487,3374.199z"/>
			</g>
			<g>
				<path style="fill:#371A45;" d="M1442.293,3461.447c-21.631,0.002-40.786-5.855-55.361-17.505
					c-15.127-12.092-23.73-29.363-24.873-49.065c-21.294-2.395-54.917-10.129-76.035-34.668
					c-16.851-19.582-22.5-45.219-16.782-76.196c17.505-94.902,149.165-121.797,391.348-79.941l0,0
					c25.698,4.441,51.401,5.671,76.392,3.662c30.996-2.493,61.382-6.902,90.313-13.101c50.268-10.769,82.622,14.404,96.147,41.555
					c16.821,33.765,8.525,74.695-20.171,99.529c-26.045,22.544-66.069,26.279-115.713,10.837
					c-27.559-8.574-56.753-6.438-82.222,6.011c-66.079,32.297-154.57,74.98-200.854,94.9
					C1482.786,3456.801,1461.561,3461.447,1442.293,3461.447z M1381.161,3359.736c5.278,0,10.327,2.31,13.77,6.335
					c3.55,4.155,5.054,9.69,4.053,15.063c-1.933,10.376-1.68,24.795,10.532,34.556c13.086,10.456,41.138,15.569,80.669-1.448
					c48.027-20.669,145.464-67.874,199.272-94.172c33.779-16.519,72.437-19.375,108.843-8.052
					c25.869,8.047,60.972,13.94,81.299-3.65c18.911-16.367,19.204-40.527,11.47-56.052c-9.688-19.441-30.698-27.788-56.196-22.317
					c-30.469,6.528-62.427,11.167-94.99,13.789c-28.023,2.251-56.773,0.884-85.454-4.077
					c-212.632-36.753-336.787-18.684-349.619,50.864c-3.672,19.907-0.869,34.944,8.565,45.962
					c17.207,20.09,54.385,23.559,67.285,23.206C1380.824,3359.738,1380.995,3359.736,1381.161,3359.736z"/>
			</g>
		</g>
		<g>
			<g>
				<path style="fill:#FFA233;" d="M2065.82,3322.011c26.313,22.787,67.184,17,98.47,7.234c31.648-9.766,65.737-7.505,95.486,7.053
					c58.684,28.664,152.543,74.056,200.106,94.582c72.248,31.105,126.14,0.905,116.103-53.078c0,0,111.582,3.708,94.22-90.513
					c-2.442-13.292-7.776-24.776-15.643-34.631c-47.925-59.95-190.25-59.228-354.819-30.744
					c-26.765,4.612-53.983,6.058-80.928,3.888c-24.957-2.08-57.509-5.968-92.683-13.473c-33.999-7.324-58.956,5.335-72.158,25.138
					C2037.246,3262.513,2039.326,3299.044,2065.82,3322.011z"/>
			</g>
			<g>
				<path style="fill:#E26D1E;" d="M2065.82,3322.011c26.313,22.787,67.184,17,98.47,7.234c31.648-9.766,65.737-7.505,95.486,7.053
					c58.684,28.664,152.543,74.056,200.106,94.582c72.248,31.105,126.14,0.905,116.103-53.078c0,0,111.582,3.708,94.22-90.513
					c-2.442-13.292-7.776-24.776-15.643-34.631c0,0,14.468,99.012-115.108,58.684c0,0,52.446,76.226-25.589,74.418
					c-78.035-1.809-214.031-88.433-258.519-96.933c-44.488-8.5-92.683-9.133-134.729,3.074
					c-42.047,12.117-77.945-24.233-66.642-54.434C2037.246,3262.513,2039.326,3299.044,2065.82,3322.011z"/>
			</g>
			<g>
				<path style="fill:#371A45;" d="M2558.287,3381.439c-13.823-43.156-56.255-71.287-97.712-84.66
					c-34.718-12.131-72.1-16.01-108.683-17.766c-12.505-0.16-25.046-0.196-37.658-0.503c-4.603,0.171-8.508-3.569-8.37-8.208
					c0.098-4.031,3.162-7.292,7.053-7.751c32.217-3.92,64.891-6.917,97.391-4.108c15.424,0.676,34.096,3.772,49.277,6.776
					c4.865,1.347,14.631,4.039,19.48,5.428c6.727,1.38,22.06,8.406,28.697,10.792c38.66,18.538,74.575,49.996,85.961,92.759
					C2598.034,3398.071,2563.906,3405.011,2558.287,3381.439L2558.287,3381.439z"/>
			</g>
			<g>
				<path style="fill:#371A45;" d="M2514.915,3461.447c-19.268,0.002-40.493-4.644-62.188-13.982
					c-46.333-19.941-134.8-62.612-200.849-94.9c-25.474-12.451-54.678-14.583-82.222-6.011
					c-49.648,15.444-89.663,11.702-115.713-10.837c-28.696-24.836-36.992-65.764-20.171-99.531
					c13.53-27.153,45.918-52.314,96.142-41.553c28.936,6.199,59.322,10.608,90.317,13.101c25,2.009,50.698,0.781,76.392-3.662l0,0
					c242.163-41.855,373.838-14.963,391.348,79.941c5.713,30.977,0.068,56.611-16.782,76.194
					c-21.118,24.541-54.741,32.275-76.04,34.67c-1.143,19.702-9.746,36.973-24.873,49.065
					C2555.701,3455.59,2536.541,3461.447,2514.915,3461.447z M2203.465,3305.204c22.158,0,44.092,4.993,64.292,14.866
					c53.784,26.289,151.187,73.479,199.268,94.172c39.541,17.017,67.593,11.899,80.669,1.448
					c12.212-9.761,12.466-24.18,10.532-34.556c-1.006-5.388,0.488-10.94,4.058-15.098s8.877-6.492,14.312-6.292
					c12.783,0.33,50.044-3.115,67.246-23.208c9.434-11.021,12.236-26.055,8.564-45.962c-12.832-69.548-137.026-87.61-349.619-50.864
					l0,0c-28.682,4.961-57.427,6.326-85.454,4.077c-32.564-2.622-64.522-7.26-94.995-13.789
					c-25.483-5.461-46.499,2.878-56.191,22.317c-7.734,15.522-7.441,39.685,11.47,56.052c20.327,17.59,55.425,11.697,81.299,3.65
					C2173.553,3307.465,2188.558,3305.204,2203.465,3305.204z"/>
			</g>
		</g>
		<g>
			<g>
				<path style="fill:#7A4D43;" d="M2606.635,2669.521c-3.979,201.552-81.199,382.126-161.043,465.044
					c-128.672,133.554-253.636,118.273-317.022,70.711c-6.33-4.702-12.93-9.133-19.622-13.111
					c-79.753-47.924-180.936-47.924-260.689,0c-6.691,3.979-13.292,8.409-19.622,13.111
					c-63.386,47.562-188.26,62.844-317.023-70.711c-79.843-82.918-157.064-263.492-161.042-465.044
					c-3.708-177.953,49.732-372.09,208.605-529.878h838.852C2556.903,2297.43,2610.343,2491.568,2606.635,2669.521z"/>
			</g>
			<g>
				<path style="fill:#DBBAA2;" d="M2471.156,2652.282c0,273.864-220.522,396.968-492.55,396.968s-492.55-123.103-492.55-396.968
					s220.522-594.783,492.55-594.783S2471.156,2378.417,2471.156,2652.282z"/>
			</g>
			<g>
				<path style="fill:#603832;" d="M2606.635,2669.521c-3.979,201.552-81.199,382.126-161.043,465.044
					c-128.672,133.554-253.636,118.273-317.022,70.711c-6.33-4.702-12.93-9.133-19.622-13.111
					c-79.753-47.924-180.936-47.924-260.689,0c-6.691,3.979-13.292,8.409-19.622,13.111
					c-63.386,47.562-188.26,62.844-317.023-70.711c-79.843-82.918-157.064-263.492-161.042-465.044
					c0-10.67,0.361-21.34,0.995-32.101c10.037,190.521,83.822,358.798,160.048,438.008
					c128.763,133.554,253.636,118.183,317.023,70.711c6.329-4.792,12.93-9.133,19.622-13.201
					c79.753-47.925,180.936-47.925,260.689,0c6.691,4.069,13.292,8.409,19.622,13.201c63.386,47.472,188.351,62.844,317.022-70.711
					c76.226-79.21,150.011-247.487,160.048-438.008C2606.274,2648.18,2606.635,2658.85,2606.635,2669.521z"/>
			</g>
			<g>
				<path style="fill:#371A45;" d="M2235.408,3257.482c-45.635,0.005-86.284-14.15-117.695-37.71
					c-5.605-4.204-11.689-8.281-18.071-12.119c-73.525-44.202-168.55-44.197-242.075,0c-6.382,3.838-12.466,7.915-18.071,12.119
					c-31.401,23.552-72.075,37.705-117.69,37.708c-68.091,0.007-147.222-31.509-223.169-110.342
					c-162.603-168.77-293.101-681.868,47.832-1020.291c7.085-7.034,18.54-6.995,25.576,0.095c7.036,7.087,6.992,18.538-0.098,25.574
					c-183.95,182.598-211.353,400.498-201.948,551.138c11.895,190.457,86.26,347.368,154.683,418.391
					c119.15,123.665,232.368,114.355,293.115,68.792c6.587-4.941,13.701-9.714,21.138-14.185
					c84.853-50.999,194.497-50.999,279.341,0c7.437,4.47,14.551,9.243,21.138,14.185c60.747,45.554,173.96,54.888,293.12-68.792
					c68.423-71.021,142.788-227.935,154.677-418.391c9.404-150.64-17.993-368.54-201.943-551.138
					c-7.09-7.036-7.134-18.487-0.098-25.576c7.041-7.085,18.496-7.126,25.576-0.093
					c340.933,338.425,210.435,851.523,47.832,1020.291C2382.645,3225.956,2303.49,3257.475,2235.408,3257.482z"/>
			</g>
		</g>
		<g>
			<g>
				<path style="fill:#7A4D43;" d="M2920.855,1922.899c0,0-295.05,290.98-873.755,341.165
					c-579.972,31.105-912.818-215.749-912.818-215.749c-199.292-117.098-111.491-181.027-111.491-181.027
					c-120.715-135.363-26.584-163.755-26.584-163.755c-49.371-142.597,55.791-119.72,55.791-119.72
					c9.133-206.707,60.402-384.026,60.402-384.026c-86.263-157.697-204.175-271.63-260.417-320.729
					c-15.915-13.925-13.111-39.334,5.335-49.733c323.714-181.841,748.791-20.978,748.791-20.978s137.533-57.328,333.931-69.807
					c196.308-15.1,340.442,22.515,340.442,22.515s398.493-218.642,744.451-83.822c19.712,7.686,26.042,32.461,12.207,48.557
					c-48.828,56.424-149.65,185.728-213.036,353.824c0,0,75.503,168.548,113.39,371.818c0,0,100.912-37.254,71.977,110.858
					c0,0,97.205,14.919-3.436,165.745C3006.033,1728.038,3101.881,1779.218,2920.855,1922.899z"/>
			</g>
			<g>
				<path style="fill:#DBBAA2;" d="M2920.855,1922.899c0,0-295.05,290.98-873.755,341.165
					c-579.972,31.105-912.818-215.749-912.818-215.749c-199.292-117.098-111.491-181.027-111.491-181.027
					c-120.715-135.363-26.584-163.755-26.584-163.755c-49.371-142.597,55.791-119.72,55.791-119.72
					c0.633-15.191,1.537-30.201,2.713-44.94c13.654-186.813,57.69-339.086,57.69-339.086
					c-86.263-157.697-204.175-271.63-260.417-320.729c0,0,2.079,0.271,6.239,0.904c1.266,0.181,2.713,0.361,4.34,0.633
					c0.905,0.09,1.809,0.271,2.803,0.452c12.93,2.08,34.994,5.968,65.104,12.75c2.713,0.542,5.516,1.176,8.409,1.898
					c3.708,0.814,7.596,1.718,11.574,2.713c7.053,1.628,14.377,3.436,22.063,5.426c17.089,4.25,35.807,9.313,56.062,15.191
					c3.346,0.904,6.601,1.899,10.037,2.894c6.782,1.989,13.744,4.069,20.888,6.239c6.782,2.079,13.654,4.25,20.797,6.42
					c0.181,0.091,0.362,0.091,0.542,0.181c10.941,3.527,22.334,7.143,33.999,11.122c23.781,7.957,49.099,16.91,75.593,26.856
					c8.138,3.074,16.367,6.149,24.685,9.404c62.301,24.143,130.932,53.621,204.627,89.79c24.685,12.117,50.004,24.957,75.865,38.611
					c9.585,4.973,19.351,10.218,29.116,15.553c7.686,4.159,15.372,8.409,23.148,12.749c26.494,14.558,53.44,30.111,80.928,46.477
					c9.133,5.425,18.356,11.031,27.579,16.638c8.862,5.426,17.904,11.032,26.946,16.638c10.76,6.691,21.521,13.473,32.371,20.526
					c6.42,4.159,12.93,8.319,19.441,12.568c39.786,25.951,80.386,53.711,121.528,83.37c0,0-2.079-39.877,26.494-42.951
					c9.042-0.995,22.335,4.34,36.35,12.207c2.894,1.537,5.787,3.255,8.59,4.973c7.234,4.341,14.467,9.223,21.159,14.016
					c3.617,2.441,6.963,4.973,10.127,7.324c1.357,0.995,2.623,1.898,3.798,2.894c2.803,2.079,5.335,3.978,7.596,5.787
					c3.075,2.351,5.606,4.431,7.596,6.059c0.542,0.452,1.085,0.904,1.537,1.266c1.899,1.538,2.984,2.442,2.984,2.442
					s3.436-3.798,9.042-9.675l1.356-1.356c0.362-0.453,0.724-0.814,1.085-1.176c0.362-0.362,0.724-0.814,1.176-1.176
					c7.686-7.957,18.175-18.266,29.387-28.031c2.261-1.989,4.702-3.979,7.053-5.877c13.834-11.393,28.031-20.798,38.61-22.696
					c1.085-0.181,2.08-0.362,3.074-0.362c28.845-0.995,32.281,38.882,32.281,38.882c15.552-14.92,31.015-29.387,46.387-43.584
					c6.601-6.149,13.111-12.117,19.712-17.994c10.489-9.675,21.069-19.08,31.557-28.302c5.335-4.702,10.579-9.314,15.824-13.926
					c9.223-7.957,18.356-15.914,27.579-23.6c6.42-5.516,12.84-10.941,19.26-16.276c7.415-6.33,14.92-12.478,22.335-18.536
					c5.787-4.793,11.574-9.494,17.271-14.106c63.477-51.27,124.874-96.662,183.287-136.719c6.601-4.521,13.111-8.952,19.622-13.292
					c52.807-35.536,102.992-66.732,150.012-93.949c10.941-6.239,21.611-12.388,32.19-18.265c3.165-1.809,6.239-3.527,9.404-5.245
					c6.963-3.798,13.744-7.596,20.526-11.212c1.627-0.904,3.165-1.718,4.702-2.532c5.426-2.893,10.76-5.787,16.005-8.5
					c39.876-21.159,76.588-39.063,109.593-54.073c5.245-2.442,10.489-4.793,15.553-7.053c39.153-17.541,72.609-30.924,99.193-40.871
					c2.713-0.995,5.245-1.99,7.776-2.894c1.627-0.542,3.345-1.176,4.883-1.718c2.713-0.995,5.335-1.899,7.867-2.803
					c9.404-3.346,17.542-6.149,24.414-8.319c1.266-0.453,2.532-0.905,3.798-1.266c4.34-1.447,8.138-2.622,11.303-3.527
					c1.176-0.362,2.351-0.724,3.346-0.995c0.994-0.362,1.989-0.633,2.803-0.814c0.813-0.271,1.537-0.452,2.17-0.633
					c1.809-0.543,2.803-0.814,2.803-0.814c-48.828,56.424-149.65,185.728-213.036,353.824c0,0,51.541,115.018,90.784,269.55
					c8.319,32.552,16.005,66.913,22.605,102.268c0,0,100.912-37.254,71.977,110.858c0,0,97.205,14.919-3.436,165.745
					C3006.033,1728.038,3101.881,1779.218,2920.855,1922.899z"/>
			</g>
			<g>
				<path style="fill:#B27E67;" d="M2824.102,1079.616c0,0,51.541,115.018,90.784,269.55l-3.979,20.255l-17.904,91.237
					l-898.622,38.249h-0.181l-925.387,39.334l-14.106,0.633c13.654-186.813,57.69-339.086,57.69-339.086
					c-86.263-157.697-204.175-271.63-260.417-320.729c0,0,2.079,0.271,6.239,0.904c1.266,0.181,2.713,0.361,4.34,0.633
					c0.905,0.09,1.809,0.271,2.803,0.452c12.93,2.08,34.994,5.968,65.104,12.75c2.713,0.542,5.516,1.176,8.409,1.898
					c3.708,0.814,7.596,1.718,11.574,2.713c7.053,1.628,14.377,3.436,22.063,5.426c17.089,4.25,35.807,9.313,56.062,15.191
					c3.346,0.904,6.601,1.899,10.037,2.894c6.782,1.989,13.744,4.069,20.888,6.239c6.782,2.079,13.654,4.25,20.797,6.42
					c0.181,0.091,0.362,0.091,0.542,0.181c10.941,3.527,22.334,7.143,33.999,11.122c23.781,7.957,49.099,16.91,75.593,26.856
					c8.138,3.074,16.367,6.149,24.685,9.404c9.495,3.708,19.08,7.505,28.845,11.393c54.435,21.882,113.3,47.744,175.782,78.396
					c8.952,4.341,17.994,8.862,27.036,13.383c7.596,3.888,15.191,7.686,22.787,11.664c8.5,4.34,16.909,8.771,25.499,13.292
					c42.77,22.515,86.896,47.2,132.379,74.237c18.446,10.941,37.073,22.335,55.881,34.09c9.313,5.877,18.718,11.755,28.121,17.813
					c17.723,11.303,35.627,22.968,53.711,35.084c10.037,6.691,20.073,13.563,30.201,20.526
					c20.255,13.834,40.69,28.212,61.307,43.041c0,0-2.079-39.877,26.494-42.951c0.452-0.09,0.904-0.09,1.447-0.09
					c8.952-0.362,21.611,4.792,34.904,12.297c2.894,1.537,5.787,3.255,8.59,4.973c7.234,4.341,14.467,9.223,21.159,14.016
					c3.617,2.441,6.963,4.973,10.127,7.324c1.357,0.995,2.623,1.898,3.798,2.894c2.803,2.079,5.335,3.978,7.596,5.787
					c3.075,2.351,5.606,4.431,7.596,6.059c0.542,0.452,1.085,0.904,1.537,1.266c0.995,0.724,1.718,1.357,2.17,1.809
					c0.271,0.271,0.542,0.452,0.814,0.633c0.09-0.09,0.09-0.09,0.181-0.181c0.724-0.813,3.979-4.34,8.862-9.494l1.356-1.356
					c0.362-0.453,0.724-0.814,1.085-1.176c0.362-0.362,0.724-0.814,1.176-1.176c7.686-7.957,18.175-18.266,29.387-28.031
					c2.261-1.989,4.702-3.979,7.053-5.877c13.834-11.393,28.031-20.798,38.61-22.696c1.085-0.181,2.08-0.362,3.074-0.362
					c28.845-0.995,32.281,38.882,32.281,38.882c38.249-36.712,76.136-71.253,113.481-103.806
					c6.149-5.335,12.117-10.489,18.175-15.643c3.165-2.713,6.239-5.425,9.404-7.957c6.42-5.516,12.84-10.941,19.26-16.276
					c7.505-6.33,14.92-12.478,22.335-18.536c5.335-4.431,10.67-8.771,15.914-13.021c24.324-19.712,48.286-38.43,71.886-56.334
					c6.239-4.792,12.479-9.494,18.718-14.106c3.345-2.532,6.691-5.064,10.037-7.505c5.697-4.16,11.394-8.409,17.09-12.478
					c29.478-21.611,58.413-41.775,86.535-60.674c52.807-35.536,102.992-66.732,150.012-93.949
					c10.941-6.239,21.611-12.388,32.19-18.265c3.165-1.809,6.239-3.527,9.404-5.245c6.963-3.798,13.744-7.596,20.526-11.212
					c1.627-0.904,3.165-1.718,4.702-2.532c5.426-2.893,10.76-5.787,16.005-8.5c39.876-21.159,76.588-39.063,109.593-54.073
					c5.245-2.442,10.489-4.793,15.553-7.053c39.153-17.541,72.609-30.924,99.193-40.871c2.713-0.995,5.245-1.99,7.776-2.894
					c1.627-0.542,3.345-1.176,4.883-1.718c2.713-0.995,5.335-1.899,7.867-2.803c9.404-3.346,17.542-6.149,24.414-8.319
					c1.266-0.453,2.532-0.905,3.798-1.266c4.34-1.447,8.138-2.622,11.303-3.527c1.176-0.362,2.351-0.724,3.346-0.995
					c0.994-0.362,1.989-0.633,2.803-0.814c0.813-0.271,1.537-0.452,2.17-0.633c1.809-0.543,2.803-0.814,2.803-0.814
					C2988.31,782.216,2887.489,911.52,2824.102,1079.616z"/>
			</g>
			<g>
				<path style="fill:#603832;" d="M2255.107,1081.69c2.84-13.737,6.936-32.929,10.978-49.68c1.931-8.005-7.321-13.942-13.781-8.837
					c-36.526,28.865-112.964,91.606-153.774,141.667c-5.226,6.411-15.579,2.511-15.326-5.757c0.52-17.014,1.445-38.888,3.044-56.665
					c0.738-8.208-9.374-12.693-14.972-6.645c-20.115,21.729-51.483,56.25-70.181,80.001c-4.191,5.324-12.595,3.931-14.923-2.432
					l-8.94-24.429c-2.991-8.173-14.811-7.345-16.633,1.166l-5.446,25.437c-1.419,6.625-9.546,9.177-14.438,4.49
					c-21.828-20.911-57.703-50.72-80.652-69.432c-6.387-5.208-15.774,0.644-13.899,8.668c4.063,17.381,8.029,38.912,10.917,55.688
					c1.403,8.151-8.304,13.457-14.373,7.838c-47.392-43.881-131.834-95.349-172.028-118.838
					c-7.109-4.155-15.443,3.015-12.414,10.672c6.338,16.024,13.071,34.457,17.799,47.664c2.496,6.971-4.312,13.638-11.231,11.002
					c-129.605-49.38-422.586-149.318-422.586-149.318s0.633,3.527,1.718,9.585c54.435,21.882,113.3,47.744,175.782,78.396
					c8.952,4.341,17.994,8.862,27.036,13.383c7.505,3.798,15.1,7.686,22.787,11.664c8.409,4.34,16.909,8.771,25.499,13.292
					c42.77,22.515,86.896,47.2,132.379,74.237c18.446,10.941,37.073,22.335,55.881,34.09c9.313,5.787,18.718,11.664,28.121,17.813
					c17.723,11.303,35.627,22.968,53.711,35.084c9.946,6.691,20.073,13.563,30.201,20.526c20.255,13.834,40.69,28.212,61.307,43.041
					c0,0-2.079-39.877,26.494-42.951c0.452-0.09,0.904-0.09,1.447-0.09c8.952-0.362,21.611,4.792,34.904,12.297
					c2.894,1.537,5.787,3.255,8.59,4.973c7.234,4.341,14.467,9.223,21.159,14.016c3.617,2.441,6.963,4.973,10.127,7.324
					c1.357,0.995,2.623,1.898,3.798,2.894c2.803,2.079,5.335,3.978,7.596,5.787c3.075,2.351,5.606,4.431,7.596,6.059
					c0.542,0.452,1.085,0.904,1.537,1.266c0.995,0.724,1.718,1.357,2.17,1.809c0.271,0.271,0.542,0.452,0.814,0.633
					c0.243-0.217,0.487-0.434,0.718-0.741c0.384-0.51,1.013-1.239,1.896-2.093c0.397-0.421,0.871-0.944,1.345-1.468
					c1.743-1.89,3.96-4.302,6.677-7.059c1.986-2.106,4.229-4.34,6.714-6.789c1.025-1.149,2.152-2.221,3.357-3.395
					c2.805-2.769,5.765-5.744,9.006-8.665c5.958-5.679,12.44-11.522,18.997-16.829c2.536-2.092,5.162-4.197,7.813-6.123
					c12.116-9.286,23.932-16.154,32.848-17.045c0.537-0.076,0.985-0.138,1.445-0.112c28.723-0.941,32.225,38.836,32.225,38.836
					c18.347-17.56,36.578-34.647,54.706-51.171c9.057-8.307,18.127-16.524,27.043-24.537c16.218-14.52,32.32-28.568,48.294-42.232
					c8.454-7.4,16.947-14.531,25.362-21.561c16.985-14.263,33.841-28.142,50.581-41.55c41.268-33.115,81.521-63.713,120.732-91.972
					c7.876-5.675,15.675-11.248,23.397-16.719c7.056-5.012,14.035-9.921,20.937-14.729c8.323-5.738,16.647-11.476,24.906-17.023
					c57.596-39.067,112.28-72.885,163.131-102.144c0.229-6.15,0.364-9.731,0.364-9.731s-276.18,139.82-397.632,206.792
					C2261.279,1094.593,2253.608,1088.941,2255.107,1081.69z"/>
			</g>
			<g>
				<path style="fill:#BF8D79;" d="M2915.656,1860.195c0,0-295.05,290.98-873.755,341.165
					c-579.972,31.105-912.818-215.749-912.818-215.749c-69.16-40.636-103.704-74.854-119.383-102.234
					c-13.689,25.766-16.584,81.995,124.581,164.94c0,0,332.846,246.854,912.818,215.749
					c578.706-50.185,873.755-341.165,873.755-341.165c130.813-103.827,117.047-159.332,99.346-182.146
					C3008.931,1770.248,2979.626,1809.421,2915.656,1860.195z"/>
			</g>
			<g>
				<path style="fill:#FFEAE1;" d="M2525.526,1908.07c-252.551,38.611-488.645-134.821-527.255-387.371
					c-1.085-7.595-2.532-14.829-3.888-21.792c-0.09-0.272-0.09-0.633-0.181-0.905v0.905c-0.362,7.143-0.633,14.467-0.633,22.154
					c0,255.444-207.068,462.603-462.513,462.603c-249.748,0-453.199-197.936-462.241-445.423c-0.271-5.697-0.361-11.393-0.361-17.18
					c0-119.087,44.94-227.595,118.906-309.608c26.494-29.387,56.605-55.429,89.88-77.131
					c43.041-28.393,91.056-49.642,142.506-62.392c8.952,4.341,17.994,8.862,27.036,13.383c7.596,3.888,15.191,7.686,22.787,11.664
					c8.5,4.34,16.909,8.771,25.499,13.292c42.77,22.515,86.896,47.2,132.379,74.237c18.446,10.941,37.073,22.335,55.881,34.09
					c9.313,5.877,18.718,11.755,28.121,17.813c17.723,11.303,35.627,22.968,53.711,35.084c10.037,6.691,20.073,13.563,30.201,20.526
					c20.255,13.834,40.69,28.212,61.307,43.041c0,0-2.079-39.877,26.494-42.951c0.452-0.09,0.904-0.09,1.447-0.09
					c17.362,0.814,75.142,40.6,97.476,56.424c0.271,0.271,0.542,0.452,0.814,0.633c0.09-0.09,0.09-0.09,0.181-0.181
					c20.165-19.079,74.78-69.625,90.604-70.168c28.845-0.995,32.281,38.882,32.281,38.882
					c38.249-36.712,76.136-71.253,113.481-103.806c6.149-5.335,12.117-10.489,18.175-15.643c3.165-2.713,6.239-5.425,9.404-7.957
					c6.42-5.516,12.84-10.941,19.26-16.276c7.505-6.33,14.92-12.478,22.335-18.536c5.335-4.431,10.67-8.771,15.914-13.021
					c24.324-19.712,48.286-38.43,71.886-56.334c6.239-4.792,12.479-9.494,18.718-14.106c3.345-2.532,6.691-5.064,10.037-7.505
					c5.697-4.16,11.394-8.409,17.09-12.478c29.478-21.611,58.413-41.775,86.535-60.674c198.388,22.787,365.67,173.25,402.11,378.148
					c0.724,3.798,1.357,7.596,1.899,11.393C2951.418,1633.365,2778.077,1869.459,2525.526,1908.07z"/>
			</g>
			<g>
				<path style="fill:#DBB4A7;" d="M1349.118,1178.139l30.004,51.011c4.337,7.374-2.095,16.377-10.486,14.705
					c-66.005-13.149-132.559-24.501-181.277-32.403c60.764-67.456,141.241-117.007,232.387-139.523
					c65.466,32.1,135.001,69.355,207.701,112.576c124.331,81.11,226.418,164.57,226.418,164.57
					c-154.921-66.115-411.85-156.93-493.011-185.303C1352.161,1160.734,1344.449,1170.201,1349.118,1178.139z"/>
			</g>
			<g>
				<path style="fill:#DBB4A7;" d="M2583.565,1084.314l-21.949,54.96c-3.173,7.945,4.546,15.872,12.588,12.951
					c63.26-22.973,127.333-44.254,174.297-59.428c-70.261-57.497-157.302-94.316-250.804-102.797
					c-59.863,41.626-122.968,88.962-188.301,142.675c-110.645,98.969-198.945,196.9-198.945,196.9
					c143.148-88.77,383.401-217.374,459.341-257.688C2577.927,1067.568,2586.981,1075.761,2583.565,1084.314z"/>
			</g>
			<g>
				<path style="fill:#371A45;" d="M1982.913,1367.133c-4.121,0.002-8.267-1.401-11.655-4.26
					c-34.741-29.304-75.024-53.914-86.138-52.788c-10.854,1.155-10.381,23.894-10.371,24.124c0.298,6.919-3.384,13.45-9.482,16.736
					c-6.099,3.286-13.535,2.852-19.15-1.194c-547.583-394.546-991.836-452.168-996.26-452.705
					c-9.912-1.201-16.978-10.208-15.781-20.12c1.196-9.915,10.22-16.951,20.107-15.791c4.634,0.559,115.62,14.382,296.773,78.013
					c162.104,56.941,412.158,166.062,692.871,364.531c6.323-15.376,18.481-27.542,37.466-29.561
					c27.749-2.966,74.18,29.917,99.893,50.191c22.632-23.665,64.072-62.7,91.904-63.65c19.146-0.647,32.827,9.695,41.235,24.038
					c250.239-235.73,482.598-378.706,635.161-457.727c170.493-88.308,278.452-117.498,282.969-118.696
					c9.629-2.549,19.551,3.179,22.114,12.825c2.568,9.648-3.169,19.556-12.817,22.129c-4.307,1.148-436.152,120.256-923.262,587.41
					c-5.024,4.817-12.373,6.323-18.887,3.875c-6.519-2.451-11.045-8.425-11.65-15.361c-0.015-0.132-2.676-22.349-13.359-22.349
					c-0.088,0-0.176,0.002-0.269,0.005c-11.201,0.383-47.612,30.432-77.92,64.302
					C1992.835,1365.094,1987.889,1367.133,1982.913,1367.133z"/>
			</g>
			<g>
				<path style="fill:#BF8D79;" d="M981.161,1711.348c0,0,12.394,58.181,77.809,125.848c17.546,18.15-3.202,47.551-25.809,36.317
					c-4.528-2.25-8.988-5.341-13.243-9.482C988.933,1833.876,928.127,1756.153,981.161,1711.348z"/>
			</g>
			<g>
				<path style="fill:#BF8D79;" d="M1019.718,1585.619c0,0,2.561,61.186,39.292,129.308c5.389,9.994-1.128,22.325-12.442,23.277
					c-16.606,1.398-38.308-5.901-48.795-47.807C979.485,1617.318,979.485,1591.715,1019.718,1585.619z"/>
			</g>
			<g>
				<path style="fill:#BF8D79;" d="M3019.261,1559.35c0,0-3.626,59.376-58.281,135.998c-14.66,20.552,10.22,46.55,30.91,32.087
					c4.144-2.897,8.096-6.615,11.69-11.342C3029.75,1681.676,3078.355,1595.793,3019.261,1559.35z"/>
			</g>
			<g>
				<path style="fill:#BF8D79;" d="M2962.482,1440.732c0,0,6.543,60.889-19.677,133.706c-3.846,10.682,4.427,21.91,15.757,21.174
					c16.63-1.081,37.009-11.518,41.164-54.516C3006.971,1466.112,3003.174,1440.793,2962.482,1440.732z"/>
			</g>
			<g>
				<path style="fill:#371A45;" d="M1531.057,1986.121c-202.537,14.771-395.149-132.046-454.866-323.039
					c-85.112-259.71,73.409-544.213,339.193-608.701c4.311-1.153,8.625-0.582,12.325,1.311
					c153.826,75.427,300.676,164.654,439.532,264.695l-28.631,15.614c-1.296-27.923,12.473-59.869,43.921-61.909
					c13.241-0.421,26.648,7.286,37.025,12.649c26.099,14.417,49.699,30.657,73.81,47.587c0,0-22.893,1.61-22.893,1.61
					c28.036-25.399,53.616-51.648,87.194-70.815c4.915-2.426,11.208-4.567,16.853-4.433c1.313,0.031,5.194,0.282,6.573,0.388
					c23.713,2.992,38.12,26.121,41.812,47.792c0.442,2.31,0.762,4.133,1.078,7.185l-30.537-11.497
					c125.566-120.324,260.675-230.97,405.145-328.213c3.712-2.569,8.102-3.554,12.276-3.038
					c380.075,46.594,556.539,491.4,308.609,784.301c-36.81,43.169-81.897,80.075-131.847,107.027
					c-50.123,26.753-105.491,43.463-161.432,47.813c-2.446,0.19-4.582-1.638-4.772-4.083c-0.173-2.222,1.324-4.194,3.433-4.673
					c53.535-12.727,104.641-32.268,151.208-59.668c93.368-53.848,166.306-141.646,201.393-243.435
					c53.506-151.93,17.156-330.428-92.576-448.47c-72.139-78.479-172.24-130.272-278.15-142.879c0,0,12.156-2.958,12.156-2.958
					c-142.613,95.984-276.187,205.346-400.403,324.377c-10.179,10.411-29.148,3.436-30.459-10.845
					c-0.851-7.154-4.279-20.827-11.233-22.688c-0.657-0.311-1.448-0.149-2.165-0.266c-0.122-0.017-0.48-0.091-0.128-0.004
					c0.391,0.085,0.799,0.03,1.14-0.151c0.176-0.104-0.551,0.28-0.791,0.365c-0.401,0.197-0.623,0.177-1.199,0.5
					c-16.383,9.134-32.314,23.391-47.17,36.16c-10.515,9.255-20.901,18.794-31.153,28.485c-6.379,6.03-15.999,6.505-22.895,1.61
					c-27.944-18.863-56.93-41.14-87.902-53.378c-0.001,0.001-0.913-0.278-0.913-0.278c0.383,0.145,0.821,0.154,1.222,0.019
					c0.341-0.128,0.118-0.056-0.047,0.001l-0.457,0.122c-0.306,0.068-0.617,0.108-0.939,0.123
					c-7.297,2.525-8.776,16.851-8.657,24.339c0.162,9.983-7.8,18.207-17.782,18.369c-4.049,0.065-7.811-1.208-10.86-3.408
					c-137.324-98.937-282.442-187.098-434.312-261.565c-0.014,0.012,12.391,1.308,12.272,1.326
					c-157.684,37.803-288.413,167.244-326.913,324.975c-48.896,186.148,34.822,393.758,200.085,493.642
					c70.461,43.477,150.783,67.165,233.827,73.094C1534.108,1981.443,1534.021,1985.914,1531.057,1986.121L1531.057,1986.121z"/>
			</g>
			<g>
				<g>
					<path style="fill:#FFA233;" d="M2129.203,1640.418c-21.25,53.35-50.004,104.619-86.354,153.809
						c-13.744,18.447-41.052,20.526-57.237,4.16c-43.222-43.312-79.21-89.79-107.965-139.522
						c-6.601-11.393-8.409-24.957-5.245-37.435c0.091,0,0.091-0.09,0.091-0.09c0.995-4.159,2.713-8.228,4.883-12.116
						c23.691-41.323,52.355-77.312,85.269-107.242c17-15.462,42.408-17.632,61.397-4.702c36.35,24.866,68.54,56.333,98.018,93.859
						c2.713,3.436,4.974,7.143,6.691,11.122C2133.815,1614.196,2134.086,1627.94,2129.203,1640.418z"/>
				</g>
				<g>
					<path style="fill:#F27920;" d="M2129.203,1640.418c-21.25,53.35-50.004,104.619-86.354,153.809
						c-13.744,18.447-41.052,20.526-57.237,4.16c-43.222-43.312-79.21-89.79-107.965-139.522
						c-6.601-11.393-8.409-24.957-5.245-37.435c0.091,0,0.091-0.09,0.091-0.09s26.042,37.435,120.353,65.466
						c9.042,2.713,18.808,1.899,27.398-2.079c82.104-39.063,105.433-76.95,108.507-82.466
						C2133.815,1614.196,2134.086,1627.94,2129.203,1640.418z"/>
				</g>
				<g>
					<path style="fill:#371A45;" d="M2003.773,1706.496c-5.4,0-10.82-0.776-16.094-2.346
						c-97.559-29.011-127.017-68.118-130.054-72.481c-5.703-8.196-3.686-19.468,4.512-25.173c8.198-5.703,19.468-3.691,25.176,4.509
						c0.083,0.105,25.366,33.108,110.674,58.477c4.731,1.406,10,1.003,14.463-1.116c80.405-38.154,100.327-74.641,100.518-75.007
						c4.38-8.972,15.137-12.576,24.126-8.193c8.975,4.382,12.637,15.332,8.252,24.309c-2.329,4.778-25.44,47.935-117.388,91.568
						C2020.325,1704.662,2012.069,1706.496,2003.773,1706.496z"/>
				</g>
				<g>
					<path style="fill:#FFD073;" d="M2004.121,1651.157l-8.383-124.99c-0.294-4.38-5.337-6.658-8.798-3.957
						c-15.848,12.369-51.23,42.498-72.885,80.21c-4.188,7.293-1.673,16.582,5.527,20.929c16.139,9.743,46.162,25.982,77.913,33.535
						C2001.037,1657.726,2004.365,1654.789,2004.121,1651.157z"/>
				</g>
				<g>
					<path style="fill:#371A45;" d="M2012.328,1827.558c-14.834,0.002-29.063-5.842-39.551-16.367
						c-44.087-44.238-81.357-92.427-110.786-143.227c-12.114-20.916-12.231-46.856-0.298-67.698
						c24.502-42.813,54.36-80.383,88.75-111.667c23.457-21.345,57.9-23.918,83.76-6.245l0,0
						c36.782,25.139,70.181,57.073,102.109,97.627c14.888,18.906,18.594,44.612,9.668,67.08
						c-21.675,54.566-51.489,107.691-88.618,157.903c-9.663,13.064-24.561,21.243-40.874,22.444
						C2015.096,1827.509,2013.709,1827.558,2012.328,1827.558z M1996.444,1506.859c-7.734,0-15.488,2.874-21.665,8.491
						c-31.587,28.738-59.072,63.352-81.699,102.881c-5.547,9.695-5.469,21.802,0.21,31.602
						c27.861,48.101,63.223,93.799,105.107,135.825c4.019,4.033,9.609,6.111,15.435,5.676c5.796-0.427,11.06-3.298,14.448-7.878
						c35.273-47.7,63.564-98.083,84.087-149.749c4.18-10.525,2.466-22.541-4.473-31.355c-29.619-37.622-60.4-67.107-94.101-90.137
						c0-0.002,0-0.002,0-0.002C2008.538,1508.625,2002.498,1506.859,1996.444,1506.859z"/>
				</g>
				<g>
					<path style="fill:#F92D2D;" d="M1945.004,1670.145l65.581,78.323l55.659-91.439c0,0-32.277,27.584-59.707,31.03
						C1979.106,1691.505,1945.004,1670.145,1945.004,1670.145z"/>
				</g>
				<g>
					<path style="fill:#371A45;" d="M2010.584,1763.293c-4.37,0-8.535-1.931-11.367-5.308l-65.581-78.323
						c-4.678-5.591-4.6-13.755,0.19-19.253c4.785-5.498,12.856-6.694,19.028-2.837l0,0c8.286,5.156,33.809,18.042,51.831,15.779
						c18.892-2.373,43.887-20.723,51.929-27.593c5.532-4.729,13.696-4.736,19.238-0.02c5.547,4.722,6.841,12.774,3.052,18.997
						l-55.659,91.44c-2.485,4.082-6.782,6.716-11.548,7.075C2011.327,1763.278,2010.95,1763.293,2010.584,1763.293z
						 M1991.649,1702.763l17.026,20.334l14.468-23.772c-4.883,1.614-9.849,2.825-14.761,3.44
						C2002.865,1703.459,1997.215,1703.376,1991.649,1702.763z M1945.003,1670.146h0.049H1945.003z"/>
				</g>
			</g>
			<g>
				<g>
					<circle style="fill:#FFC943;" cx="1548.234" cy="1538.681" r="306.015"/>
				</g>
				<g>
					<path style="fill:#F98A26;" d="M1279.097,1644.969c0-165.906,134.493-300.4,300.399-300.4
						c122.307,0,227.466,73.135,274.329,178.022c-8.369-161.528-141.981-289.925-305.591-289.925
						c-169.007,0-306.015,137.007-306.015,306.015c0,55.227,14.704,106.988,40.298,151.716
						C1280.27,1675.581,1279.097,1660.412,1279.097,1644.969z"/>
				</g>
				<g>
					
						<ellipse transform="matrix(0.7071 -0.7071 0.7071 0.7071 -618.9528 1564.8759)" style="fill:#371A45;" cx="1579.496" cy="1529.58" rx="234.159" ry="234.159"/>
				</g>
				<g>
					<circle style="fill:#FFFFFF;" cx="1637.85" cy="1482.808" r="106.825"/>
				</g>
				<g style="opacity:0.35;">
					
						<ellipse transform="matrix(0.625 -0.7806 0.7806 0.625 -707.6382 1786.1527)" style="fill:#FFFFFF;" cx="1505.371" cy="1629.65" rx="65.772" ry="80.141"/>
				</g>
				<g>
					<path style="fill:#371A45;" d="M1548.236,1862.78c-178.711,0-324.102-145.391-324.102-324.099s145.391-324.099,324.102-324.099
						s324.101,145.391,324.101,324.099S1726.947,1862.78,1548.236,1862.78z M1548.236,1250.749
						c-158.765,0-287.93,129.168-287.93,287.932c0,158.765,129.165,287.932,287.93,287.932c158.765,0,287.93-129.167,287.93-287.932
						C1836.165,1379.916,1707,1250.749,1548.236,1250.749z"/>
				</g>
			</g>
			<g>
				<g>
					
						<ellipse transform="matrix(0.7071 -0.7071 0.7071 0.7071 -329.3149 2157.905)" style="fill:#FFC943;" cx="2440.165" cy="1476.471" rx="306.015" ry="306.015"/>
				</g>
				<g>
					<path style="fill:#F98A26;" d="M2721.45,1544.368c-23.031-164.3-174.892-278.821-339.192-255.79
						c-121.122,16.978-215.111,104.003-246.96,214.381c-14.135-161.125,100.36-306.828,262.385-329.54
						c167.371-23.462,322.071,93.2,345.533,260.571c7.667,54.692,0.291,107.993-18.847,155.842
						C2724.539,1574.847,2723.594,1559.662,2721.45,1544.368z"/>
				</g>
				<g>
					
						<ellipse transform="matrix(0.7071 -0.7071 0.7071 0.7071 -335.4485 2133.7515)" style="fill:#371A45;" cx="2407.942" cy="1471.798" rx="234.159" ry="234.159"/>
				</g>
				<g>
					<circle style="fill:#FFFFFF;" cx="2343.66" cy="1433.579" r="106.826"/>
				</g>
				<g style="opacity:0.35;">
					
						<ellipse transform="matrix(0.6863 -0.7273 0.7273 0.6863 -352.2758 2304.5029)" style="fill:#FFFFFF;" cx="2495.241" cy="1560.609" rx="80.141" ry="65.772"/>
				</g>
				<g>
					<path style="fill:#371A45;" d="M2439.486,1800.631c-69.927,0-137.646-22.549-194.463-65.393
						c-69.116-52.124-113.804-128.044-125.82-213.777c-12.017-85.732,10.068-171.011,62.193-240.132
						c52.124-69.119,128.047-113.804,213.779-125.82c85.727-12.014,171.015,10.068,240.132,62.195
						c69.116,52.121,113.804,128.044,125.82,213.777c12.017,85.73-10.068,171.011-62.192,240.129
						c-52.124,69.121-128.047,113.804-213.779,125.823C2469.891,1799.572,2454.632,1800.631,2439.486,1800.631z M2440.77,1188.488
						c-13.462,0-27.012,0.94-40.576,2.842c-76.162,10.674-143.613,50.371-189.917,111.777
						c-46.309,61.406-65.933,137.17-55.254,213.335c10.674,76.162,50.376,143.611,111.782,189.919
						c61.401,46.304,137.139,65.925,213.33,55.252c76.162-10.676,143.613-50.374,189.917-111.78
						c46.309-61.404,65.933-137.168,55.254-213.333c-10.674-76.165-50.371-143.613-111.777-189.92
						C2563.06,1208.522,2502.889,1188.488,2440.77,1188.488z"/>
				</g>
			</g>
			<g style="opacity:0.3;">
				<path style="fill:#FFFFFF;" d="M854.998,881.731c2.144-2.338,4.551-4.497,7.517-6.169
					c323.714-181.841,748.791-20.978,748.791-20.978s137.533-57.328,333.931-69.807c196.308-15.101,340.442,22.515,340.442,22.515
					s398.493-218.642,744.451-83.821c2.249,0.876,4.271,2.032,6.161,3.315c0.268-0.311,0.582-0.687,0.847-0.993
					c13.835-16.096,7.505-40.871-12.207-48.557c-345.958-134.821-744.451,83.822-744.451,83.822s-144.134-37.616-340.442-22.515
					c-196.398,12.478-333.931,69.807-333.931,69.807s-425.077-160.862-748.791,20.978c-18.446,10.398-21.249,35.807-5.335,49.733
					C852.924,879.882,854.021,880.871,854.998,881.731z"/>
			</g>
			<g>
				<path style="fill:#371A45;" d="M1947.972,2284.831c-254.556,0-453.618-52.7-581.035-100.024
					c-149.966-55.701-232.993-114.419-242.568-121.379c-89.771-52.847-136.48-103.797-138.843-151.448
					c-0.942-18.953,5.493-34.316,13.037-45.076c-44.937-53.711-62.651-98.789-52.676-134.138
					c5.186-18.379,17.124-30.808,28.428-38.352c-14.575-49.387-11.919-85.696,7.935-108.071
					c15.356-17.305,36.841-21.519,52.646-21.902c9.922-175.244,48.77-327.822,58.091-362.4
					c-83.179-149.448-193.813-257.717-252.861-309.333c-11.875-10.378-17.988-25.938-16.362-41.621
					c1.631-15.74,10.85-29.766,24.658-37.522c171.499-96.321,370.269-97.134,506.846-80.85
					c128.14,15.276,224.751,47.2,250.581,56.331c30.2-11.692,157.817-57.405,333.086-68.53
					c174.917-13.445,307.622,13.994,339.155,21.353c24.302-12.649,115.508-57.751,240.259-90.774
					c132.944-35.193,329.897-62.153,513.164,9.27c14.761,5.752,25.85,18.354,29.663,33.713c3.799,15.303-0.083,31.563-10.391,43.496
					c-51.264,59.365-145.693,182.036-207.178,341.619c14.058,32.937,73.833,178.596,108.13,350.735
					c15.742-1.829,37.568-0.659,55.195,14.336c22.783,19.38,30.483,54.964,22.949,105.901c12.246,5.891,25.806,16.533,33.506,34.006
					c14.814,33.611,3.569,80.72-33.428,140.181c8.975,9.599,17.49,23.913,19.209,42.81c4.312,47.515-34.824,104.492-116.333,169.358
					c-8.521,8.24-82.534,77.974-223.242,154.068c-134.81,72.905-358.896,165.31-660.894,191.509
					c-0.195,0.017-0.396,0.029-0.596,0.042C2013.851,2283.971,1980.453,2284.831,1947.972,2284.831z M2047.137,2264.076h0.049
					H2047.137z M1037.161,1600.571c-8.789,0-20.781,1.711-27.949,9.878c-12.051,13.735-10.586,44.707,4.126,87.212
					c1.611,4.653,1.255,9.763-0.986,14.148c-2.241,4.385-6.177,7.666-10.894,9.084c-0.469,0.159-16.435,5.579-20.869,22.09
					c-3.843,14.294-1.714,47.883,55.674,112.231c3.399,3.809,5.029,8.877,4.487,13.953c-0.542,5.078-3.203,9.688-7.329,12.695
					c-0.322,0.259-12.954,10.322-11.733,28.967c1.279,19.563,18.804,61.406,121.787,121.875c0.562,0.327,1.099,0.686,1.621,1.072
					c0.811,0.598,83.936,61.421,235.947,117.683c140.156,51.878,369.243,110.381,664.834,94.573
					c294.883-25.632,513.564-115.559,645.098-186.497c142.661-76.941,216.475-148.777,217.207-149.492
					c0.454-0.449,0.942-0.881,1.44-1.277c93.53-74.263,105.039-118.145,103.574-137.693c-1.392-18.633-15.308-26.831-15.898-27.173
					c-4.507-2.4-7.666-6.531-8.911-11.482s-0.22-10.132,2.612-14.38c47.837-71.731,45.254-105.288,39.453-118.906
					c-6.699-15.73-23.261-18.867-23.965-18.992c-4.771-0.857-9.116-3.608-11.851-7.607c-2.739-3.999-3.872-8.95-2.944-13.706
					c8.633-44.141,5.757-75.012-8.096-86.931c-14.136-12.161-39.692-3.516-39.937-3.423c-4.99,1.79-10.557,1.306-15.146-1.333
					c-4.59-2.639-7.842-7.141-8.813-12.346c-37.051-198.721-111.372-366.108-112.119-367.776c-1.948-4.353-2.1-9.304-0.42-13.767
					c63.369-168.135,162.685-297.295,216.25-359.319c3.803-4.407,3.13-9.258,2.661-11.14c-1.001-4.031-3.809-7.214-7.695-8.728
					c-334.248-130.271-725.269,80.711-729.18,82.857c-4.033,2.219-8.784,2.808-13.257,1.648
					c-1.416-0.371-143.892-36.641-334.473-21.973c-190.996,12.124-327.017,67.927-328.369,68.489
					c-4.253,1.775-9.038,1.848-13.35,0.222c-4.17-1.577-421.162-155.698-733.613,19.792c-3.638,2.041-5.972,5.583-6.396,9.717
					c-0.2,1.929-0.195,6.829,4.189,10.659c61.694,53.928,178.076,167.937,264.312,325.593c2.29,4.185,2.832,9.109,1.514,13.691
					c-0.508,1.755-50.727,177.883-59.663,379.832c-0.234,5.325-2.808,10.276-7.031,13.528c-4.229,3.25-9.673,4.482-14.878,3.342
					C1048.114,1601.449,1043.455,1600.571,1037.161,1600.571z"/>
			</g>
		</g>
		<g>
			<g>
				<path style="fill:#7A4D43;" d="M1561.619,2683.536c0,0,70.711,199.925-192.6,338.904
					c-75.503,39.876-139.341,46.387-189.978,29.297c-96.571-32.372-145.038-150.735-134.278-288.087
					c4.973-62.753,23.419-123.608,51.27-180.031c54.525-110.316,195.404-377.425,375.255-582.233
					c8.048-9.223,18.718-14.377,29.749-15.553c15.643-1.808,31.919,4.16,42.408,17.723c31.377,40.419,60.131,130.751,15.733,331.219
					C1559.178,2334.775,1664.069,2403.044,1561.619,2683.536z"/>
			</g>
			<g>
				<path style="fill:#603832;" d="M1561.619,2683.536c0,0,70.711,199.925-192.6,338.904
					c-75.503,39.876-139.341,46.387-189.978,29.297c4.428-1.683,312.999-120.39,264.232-336.833
					c-2.026-8.992-0.948-18.372,3.04-26.683c20.428-42.569,78.041-182.659,21.047-308.231c-4.58-10.091-4.853-21.567-0.829-31.891
					c22.654-58.121,91.625-254.68,34.505-362.266c15.643-1.808,31.919,4.16,42.408,17.723
					c31.377,40.419,60.131,130.751,15.733,331.219C1559.178,2334.775,1664.069,2403.044,1561.619,2683.536z"/>
			</g>
			<g>
				<path style="fill:#603832;" d="M1359.616,2656.799c13.3,22.687,37.757,76.086,13.883,131.473
					c-2.985,6.925,5.517,13.041,10.879,7.738c51.175-50.613,113.485-134.646-18.033-149.357
					C1360.804,2646.033,1356.797,2651.989,1359.616,2656.799z"/>
			</g>
			<g>
				<path style="fill:#603832;" d="M1159.022,2643.702c20.642,16.294,62.849,57.138,60.759,117.415
					c-0.261,7.536,9.883,10.14,12.948,3.25c29.257-65.762,56.728-166.705-71.131-132.564
					C1156.213,2633.241,1154.646,2640.247,1159.022,2643.702z"/>
			</g>
			<g>
				<path style="fill:#603832;" d="M1252.976,2892.355c18.885,18.302,56.737,63.21,48.553,122.966
					c-1.023,7.471,8.805,11.089,12.553,4.545c35.768-62.46,73.323-160.101-57.337-139.087
					C1251.24,2881.664,1248.972,2888.475,1252.976,2892.355z"/>
			</g>
			<g>
				<path style="fill:#603832;" d="M1380.647,2323.047c13.3,22.687,37.757,76.086,13.883,131.473
					c-2.985,6.925,5.517,13.041,10.879,7.738c51.175-50.613,113.485-134.646-18.033-149.357
					C1381.835,2312.281,1377.828,2318.237,1380.647,2323.047z"/>
			</g>
			<g>
				<path style="fill:#603832;" d="M1238.38,2459.316c20.243,16.787,61.453,58.636,57.911,118.845
					c-0.443,7.528,9.636,10.375,12.866,3.562c30.834-65.038,60.73-165.289-67.914-134.24
					C1235.823,2448.791,1234.088,2455.757,1238.38,2459.316z"/>
			</g>
			<g>
				<path style="fill:#371A45;" d="M1234.837,3078.83c-44.438,0-78.35-13.887-102.676-29.89
					c-76.182-50.117-115.576-157.283-105.386-286.67c4.932-62.612,22.773-125.413,53.042-186.655l0,0
					c52.964-107.161,195.806-378.787,377.866-586.138c12.827-14.612,31.23-22.617,50.781-22.063
					c19.429,0.591,37.397,9.734,49.307,25.083c33.403,43.057,63.833,136.194,21.357,335.791
					c25.957,26.428,86.621,118.762,1.558,355.735c4.541,16.584,14.175,62.734,1.035,120.808
					c-14.741,65.164-62.148,158.584-204.268,233.591C1321.331,3068.041,1273.997,3078.83,1234.837,3078.83z M1112.24,2591.64
					c-28.218,57.1-44.839,115.464-49.409,173.472c-9.004,114.309,25.181,211.487,89.209,253.611
					c53.95,35.493,126.06,31.24,208.53-12.288c246.675-130.19,184.678-315.059,184.023-316.909
					c-1.401-3.962-1.377-8.289,0.063-12.234c94.98-260.068,5.342-326.858,4.424-327.5c-6.314-4.114-9.16-11.536-7.529-18.892
					c45.01-203.279,11.577-285.383-12.358-316.233c-5.269-6.795-13.223-10.84-21.826-11.101c-8.686-0.322-16.821,3.303-22.505,9.776
					C1305.633,2217.465,1164.569,2485.763,1112.24,2591.64L1112.24,2591.64z"/>
			</g>
		</g>
		<g>
			<g>
				<path style="fill:#7A4D43;" d="M3029.543,2000.753c0,0,188.531,448.316-406.541,811.725
					c-27.036,16.547-55.61,32.914-85.992,49.009c0,0-11.031-180.394-14.648-297.491c-3.617-117.007-82.195-355.361-82.195-355.361
					s376.25-372.452,574.275-627.263c7.867-10.037,21.069-13.745,32.462-9.675c2.803,0.904,5.425,2.351,7.867,4.16
					C3097.631,1608.59,3167.257,1710.677,3029.543,2000.753z"/>
			</g>
			<g>
				<path style="fill:#603832;" d="M3029.543,2000.753c0,0,188.531,448.316-406.541,811.725
					c114.023-109.864,248.663-314.31,248.663-314.31c-97.44,0-130.993-30.902-142.42-54.408
					c-6.327-13.014-2.314-28.654,9.271-37.325c67.25-50.335,197.53-145.084,197.53-145.084
					c-49.49,14.974-89.976,17.125-119.052,15.175c-24.032-1.612-36.47-29.49-21.945-48.703l146.785-194.156
					c128.762-212.132,95.305-456.545,95.305-456.545s3.708-2.35,9.766-5.425c2.803,0.904,5.425,2.351,7.867,4.16
					C3097.631,1608.59,3167.257,1710.677,3029.543,2000.753z"/>
			</g>
			<g>
				<path style="fill:#371A45;" d="M2559.463,2833.465c138.706-101.927,284.035-199.814,379.854-345.061
					c89.644-129.576,132.722-298.288,84.636-451.479c-2.985-9.29-6.698-19.667-10.72-28.413c-2.392-5.08-2.198-10.782-0.009-15.508
					c11.786-25.107,22.99-50.445,33.185-76.116c33.592-87.91,76.104-222.676,16.969-306.293
					c-5.389-7.244-11.612-13.67-18.647-19.205c-3.503-3.211-7.03-3.512-11.233-2.03c-1.654,0.697-3.125,1.794-4.244,3.179
					c-0.08,0.074-0.228,0.233-0.56,0.665l-3.289,4.162c-25.116,32.077-53.731,67.43-80.064,98.821
					c-156.706,180.93-316.361,360.119-495.894,518.845c-12.023,10.11-29.304-6.183-18.637-18.833
					c73.402-85.208,153.84-163.542,230.489-245.477c96.369-101.424,192.141-204.15,281.992-311.272
					c18.204-21.241,35.402-43.166,52.967-64.848c16.289-24.077,48.117-31.048,71.254-12.084
					c122.175,103.363,34.454,326.267-21.65,445.98c-0.001,0-0.087-15.67-0.087-15.67c9.741,21.343,16.262,43.481,21.678,66.135
					c59.244,253.878-82.898,492.809-272.972,651.067c-68.371,56.855-140.759,109.639-222.382,144.934
					C2558.818,2860.165,2547.661,2843.178,2559.463,2833.465L2559.463,2833.465z"/>
			</g>
		</g>
		<g>
			<g>
				<path style="fill:#7A4D43;" d="M3166.802,2252.433c-13.715,63.23-58.5,115.433-117.458,141.891
					c-134.544,60.421-218.348,40.816-259.667,20.696c-9.61-4.777-14.605-14.457-14.143-24.058c0.286-6.685,3.198-13.348,8.853-18.18
					c100.587-86.769,229.748-220.689,274.625-267.827c10.356-10.877,16.252-17.142,16.252-17.142
					C3168.512,2126.895,3179.296,2194.573,3166.802,2252.433z"/>
			</g>
			<g>
				<path style="fill:#603832;" d="M3025.537,2261.011c-97.437,76.706-244.847,126.823-244.847,126.823s-2.032,1.446-5.157,3.128
					c0.286-6.685,3.198-13.348,8.853-18.18c100.587-86.769,229.748-220.689,274.625-267.827c16.905-1.673,27.138-1.84,27.138-1.84
					S3133.47,2176.042,3025.537,2261.011z"/>
			</g>
			<g>
				<path style="fill:#371A45;" d="M2883.675,2455.812c-47.734,0-81.992-11.399-103.247-21.748
					c-14.067-6.851-23.677-20.237-25.703-35.811c-2.041-15.684,3.882-31.204,15.835-41.519
					c121.44-104.773,287.656-281.631,289.321-283.406c6.045-6.445,15.469-8.45,23.618-5.032
					c85.532,35.891,122.451,102.878,103.95,188.623c-14.746,68.354-63.145,126.943-129.463,156.721
					C2987.293,2445.385,2929.32,2455.812,2883.675,2455.812z M3080.291,2113.334c-38.662,40.701-176.694,184.519-282.085,275.447
					c-1.592,1.372-1.631,3.105-1.514,4.014c0.195,1.499,0.957,2.583,2.261,3.218c34.931,17.009,112.783,36.904,241.699-20.979
					c54.092-24.29,93.506-71.78,105.43-127.039C3159.427,2186.146,3137.894,2141.969,3080.291,2113.334z"/>
			</g>
		</g>
		<g>
			<g>
				<path style="fill:#7A4D43;" d="M3201.057,2010.792c-3.008,64.63-38.487,123.555-92.225,159.449
					c-122.622,81.956-208.519,76.561-252.609,63.593c-10.27-3.112-16.806-11.827-17.947-21.371
					c-0.83-6.64,0.933-13.694,5.706-19.399c84.756-102.289,189.845-255.825,226.258-309.77
					c8.403-12.448,13.175-19.607,13.175-19.607C3181.865,1886.718,3203.754,1951.659,3201.057,2010.792z"/>
			</g>
			<g>
				<path style="fill:#603832;" d="M3063.186,2042.744c-83.323,91.842-220.345,165.777-220.345,165.777s-1.763,1.763-4.564,3.942
					c-0.83-6.64,0.933-13.694,5.706-19.399c84.756-102.289,189.845-255.825,226.258-309.77c16.391-4.461,26.454-6.328,26.454-6.328
					S3155.485,1941.008,3063.186,2042.744z"/>
			</g>
			<g>
				<path style="fill:#371A45;" d="M2910.438,2262.336c-25.249,0-45.439-3.855-60.171-8.186
					c-15.005-4.412-26.704-16.013-31.294-31.028c-4.624-15.127-1.367-31.418,8.701-43.579
					c102.329-123.515,236.816-325.552,238.159-327.578c4.893-7.361,13.843-10.908,22.456-8.892
					c90.313,21.167,137.856,81.084,133.872,168.711c-3.174,69.854-41.153,135.674-101.592,176.067
					C3032.508,2246.701,2961.258,2262.336,2910.438,2262.336z M3092.615,1888.019c-31.353,46.563-143.545,211.333-232.349,318.523
					c-1.338,1.616-1.089,3.333-0.82,4.211c0.445,1.445,1.372,2.385,2.764,2.795c37.275,10.957,117.358,17.632,234.844-60.884
					c49.302-32.949,80.264-86.333,82.832-142.803C3182.757,1946.655,3154.178,1906.674,3092.615,1888.019z"/>
			</g>
		</g>
	</g>
</g>
</svg>
